<mxfile host="app.diagrams.net" agent="Mozilla/5.0 (Macintosh; Intel Mac OS X 10_15_7) AppleWebKit/537.36 (KHTML, like Gecko) Chrome/135.0.0.0 Safari/537.36" version="26.1.3">
  <diagram name="Сторінка-1" id="smZylFU8Ez6Xz393hW2x">
    <mxGraphModel dx="1242" dy="869" grid="1" gridSize="10" guides="1" tooltips="1" connect="1" arrows="1" fold="1" page="1" pageScale="1" pageWidth="1169" pageHeight="827" math="0" shadow="0">
      <root>
        <mxCell id="0" />
        <mxCell id="1" parent="0" />
        <mxCell id="no2RGBAZu8elhLlSzY0b-1" value="MVP Release" style="rounded=1;whiteSpace=wrap;html=1;" vertex="1" parent="1">
          <mxGeometry x="510" y="60" width="120" height="60" as="geometry" />
        </mxCell>
        <mxCell id="no2RGBAZu8elhLlSzY0b-2" value="&lt;h1 style=&quot;margin-top: 0px;&quot;&gt;&lt;span data-teams=&quot;true&quot;&gt;Harvester&lt;/span&gt;&lt;/h1&gt;&lt;p&gt;Aggregation data from shelters&lt;br&gt;&lt;br&gt;&amp;nbsp;&lt;/p&gt;" style="text;html=1;whiteSpace=wrap;overflow=hidden;rounded=0;" vertex="1" parent="1">
          <mxGeometry x="170" y="190" width="240" height="150" as="geometry" />
        </mxCell>
        <mxCell id="no2RGBAZu8elhLlSzY0b-3" value="&lt;h1 style=&quot;margin-top: 0px;&quot;&gt;Features that was moved from the MVP scope&lt;/h1&gt;&lt;p&gt;Lorem ipsum dolor sit amet, consectetur adipisicing elit, sed do eiusmod tempor incididunt ut labore et dolore magna aliqua.&lt;/p&gt;" style="text;html=1;whiteSpace=wrap;overflow=hidden;rounded=0;" vertex="1" parent="1">
          <mxGeometry x="460" y="190" width="280" height="280" as="geometry" />
        </mxCell>
      </root>
    </mxGraphModel>
  </diagram>
</mxfile>
